<svg viewBox="0 0 100 100" xmlns="http://www.w3.org/2000/svg">
    <symbol viewBox="0 0 48 48" id="icon-137">
        <title>EarthCache</title>
        <circle cx="24" cy="24" r="24" fill="#fff"/>
        <path d="M22.958 23.092c.089-3.201.653-7.191 1.362-9.265V4.978c-4.128 6.792-4.492 17.968-4.448 21.92l3.086-3.806m2.462-10.413c4.564.179 8.526 5.714 8.784 9.617l9.333 1.436.022-.017c-.162-10.312-8.106-18.73-18.139-19.529v8.493m7.668 10.57c-2.739 1.099-7.149 1.486-9.547.881l-3.185 3.926c1.221.265 3.682.692 6.74.692 3.955 0 9.901-.813 15.091-4.099l-9.099-1.4" fill="#efdd92"/>
        <path d="M27.096 29.861c-4.545 0-7.739-.89-7.872-.929l-.375-.106-.026-.392c-.043-.648-.714-15.734 4.732-24.321-10.723.167-19.398 9.038-19.398 19.924 0 10.994 8.839 19.934 19.704 19.934 10.514 0 19.131-8.373 19.677-18.872-5.594 3.849-12.14 4.762-16.442 4.762" fill="#a0d4e0"/>
        <path d="M25.42 12.679c4.564.179 8.526 5.714 8.784 9.617l3.668.564c-.24-6.635-5.911-12.835-12.453-13.086v2.905m7.669 10.57c-2.739 1.099-7.149 1.486-9.547.881l-1.207 1.488c4.625 1.156 10.268.498 14.591-1.779l-3.837-.59M24.32 10.901c-1.298 2.676-2.249 7.88-2.369 13.435l1.006-1.244c.089-3.201.653-7.191 1.362-9.265v-2.926" fill="#ffb600"/>
        <path d="M4.166 23.684c1.494.045 3.935-3.335 4.023-5.023.092-1.761.733-1.854 1.651-2.041.916-.183 2.566 1.206 3.756.65 1.193-.556 2.659-2.41 2.751-2.874.091-.465.733-2.41-.184-4.266-.68-1.375-.251-3.459.015-4.448C9.222 8.674 4.306 15.6 4.166 23.684m36.82 2.939c-.105 1.15-.814 7.613-3.376 6.965-2.566-.649-6.114-3.066-8.249-1.577-2.657 1.855-.092 3.246-1.191 4.542-1.101 1.299-.366 3.338-.55 4.637-.154 1.093-.827 2.248-1.036 2.587 9.24-1.299 16.443-9.099 16.945-18.672-.83.571-1.682 1.07-2.543 1.518" fill="#1f5910"/>
    </symbol>
    <symbol viewBox="0 0 48 48" id="icon-1858">
        <title>Wherigo Cache</title>
        <circle cx="23.997" cy="24" r="24" fill="#fff"/>
        <circle cx="23.997" cy="24" r="20" fill="#12508c"/>
        <g fill="#fff">
            <path d="M24.571 12.192c-6.461 0-11.7 5.093-11.7 11.373 0 6.282 5.24 11.374 11.7 11.374 6.462 0 11.701-5.092 11.701-11.374-.001-6.28-5.239-11.373-11.701-11.373zm.417 15.812l-5.139-4.998 8.894-3.65-3.755 8.648z"/>
            <path d="M25.206 9.12l-.178 2.669c2.559.149 4.985.994 7.06 2.44l1.677-2.147a16.56 16.56 0 0 0-8.559-2.962zm10.306 4.372a21.778 21.778 0 0 0-.557-.493l-1.884 1.982c.17.143.345.279.51.43.132.123.247.256.372.382l2.057-1.792c-.168-.167-.321-.346-.498-.509zm-.735 3.205c1.61 1.942 2.568 4.221 2.847 6.556l.564-.039c-.338-2.584-1.397-4.572-3.097-6.282l-.314-.235zm3.516 7.793l-.582-.015c.007.399-.001.798-.032 1.196l.6.068c.024-.42.027-.835.014-1.249zM34.19 33.3l.582.549a12.802 12.802 0 0 0 3.367-6.835l-.616-.127A12.192 12.192 0 0 1 34.19 33.3zm-1.895 1.592l.489.672c.354-.247.695-.514 1.024-.799l-.538-.615a12.71 12.71 0 0 1-.975.742zm-7.373 2.332c-.3.004-.596-.014-.892-.028l-.054 1.108c2.696-.005 5.375-.694 7.679-2.02l-.425-.733a13.454 13.454 0 0 1-6.308 1.673zm-3.703.844c.45.08.901.138 1.354.176l.178-1.169a15.336 15.336 0 0 1-1.225-.224l-.307 1.217zm-7.021-5.674l-1.366 1.034a14.538 14.538 0 0 0 3.147 2.652 14.526 14.526 0 0 0 3.872 1.682l.453-1.255a13.61 13.61 0 0 1-4.995-2.938c-.403-.373-.766-.77-1.111-1.175zM12.802 30.4l-1.608.795c.232.389.483.77.752 1.138l1.497-.92a12.368 12.368 0 0 1-.641-1.013zm-1.466-8.12l-2.112-.373a14.684 14.684 0 0 0 1.312 8.057l1.713-.659a12.408 12.408 0 0 1-.913-7.025zm.628-2.341l-2.117-.798c-.148.447-.274.898-.377 1.352l2.123.587c.106-.385.23-.766.371-1.141zm2.845-4.381a13.056 13.056 0 0 1 6.479-3.491l-.576-2.439c-3.85.957-7.342 3.146-9.428 6.464a14.425 14.425 0 0 0-.91 1.705l2.084 1.017a12.365 12.365 0 0 1 2.351-3.256zm7.395-6.235l.336 2.536a13.87 13.87 0 0 1 1.231-.089l-.093-2.627c-.493.038-.984.098-1.474.18z"/>
        </g>
    </symbol>
    <symbol viewBox="0 0 48 48" id="icon-4">
        <title>Virtual Cache</title>
        <circle cx="24" cy="24" r="24" fill="#fff"/>
        <circle cx="24" cy="24" r="20" fill="#009bbb"/>
        <path d="M31.507 19.387c0 .104.005-.104 0 0zm.631 9.216c3.473-3.267 4.14-8.031 2.599-8.414-1.088-.27-1.667.708-3.201 2-.029-1.061-.029-1.932-.029-2.802 0-4.316-2.201-8.022-7.234-8.022s-7.333 3.55-7.333 8.241c.003.09-.111 1.392-.214 2.797-1.734-1.396-2.315-2.5-3.463-2.215-1.615.401-.807 5.616 3.116 8.875l.088.041c-.109 1.722-.323 3.37-.73 4.564-1.432 4.192 3.726 1.362 4.87 1.362 1.312 0 2.598 1.586 4.441 1.604 1.935.019 2.067-1.081 4.037-1.604 1.232-.327 5.606 3.122 4.037-2.407a52.134 52.134 0 0 1-.984-4.02zm-11.531-8.815c0-1.108.542-2.006 1.211-2.006s1.211.898 1.211 2.006c0 1.107-.542 2.006-1.211 2.006s-1.211-.898-1.211-2.006zm3.633 5.558c-.988 0-2.091-.84-2.091-1.504 0-.665 1.103.201 2.091.201s2.019-.908 2.019-.243-1.031 1.546-2.019 1.546zm2.422-3.552c-.669 0-1.211-.898-1.211-2.006 0-1.108.542-2.006 1.211-2.006s1.211.898 1.211 2.006c.001 1.108-.542 2.006-1.211 2.006z" fill="#fff"/>
    </symbol>
    <symbol viewBox="0 0 48 48" id="icon-2">
        <title>Traditional Cache</title>
        <circle cx="24" cy="24" r="24" fill="#fff"/>
        <circle cx="24" cy="24" r="20" fill="#02874d"/>
        <path d="M37.43 16.444a.435.435 0 0 0-.429-.441c-.409-.01-11.518.006-11.518.006l-15.117 3.683s-.367.092-.367.736v1.919c0 .708.613.662.613.662l.237.049v6.693c0 1.659 1.138 3.017 2.561 3.017h8.58c.425 0 .819-.133 1.174-.345l.005.015 11.092-4.594c2.279-1.027 2.36-1.854 2.319-3.492 0-.193-.009-.404-.009-.635V18.63c.169-.06.601-.101.61-.11.006-.004.257-.092.257-.423 0-.401-.008-1.221-.008-1.653zM21.588 30.988h-7.749c-.696 0-1.259-.744-1.259-1.66v-6.269h10.268v6.269c0 .915-.564 1.66-1.26 1.66zm13.276-6.963c.03 1.31-.12 1.587-1.535 2.216l-8.814 3.707c.03-.193.049-.391.049-.593l.006-6.297s.658-.373.857-.441c1.846-.633 6.784-2.412 9.424-3.365v4.105c0 .244.005.466.013.668z" fill="#fff"/>
    </symbol>
    <symbol viewBox="0 0 48 48" id="icon-3">
        <title>Multi-Cache</title>
        <circle cx="24.003" cy="24" r="24" fill="#fff"/>
        <circle cx="24.003" cy="24" r="20" fill="#e98300"/>
        <path d="M31.536 20.961a372.68 372.68 0 0 0-2.624-.005c-2.709 0-6.372.005-6.372.005l-12.061 2.285s-.294.07-.294.568v.918c0 .484.375.514.467.514h.02l.379.045v5.437c0 1.296.924 2.348 2.057 2.348h6.557c.339 0 .656-.105.937-.271l.005.013 8.463-3.065c1.822-.794 1.857-1.541 1.857-2.709l-.003-4.345c.137-.051.59-.064.596-.073.004-.005.226-.073.226-.328V21.21c.001-.177-.2-.249-.21-.249zM18.691 31.333h-4.92c-.55 0-.991-.56-.991-1.276v-4.766h6.912l.003 4.747c0 .717-.452 1.295-1.004 1.295zm10.517-4.883c-.011.569-.095 1.231-1.223 1.72l-6.616 2.264s.051-.231.051-.391v-4.752l7.776-2.121c.003.318.025 2.604.012 3.28zm8.325-10.293l-12.657-1.234s-8.969 1.323-9.291 1.361c-.01 0-.206.095-.21.28v1.416c0 .263.216.309.217.313.013.006.519.03.652.07l.238.016h-.247l.003 1.632 1.732-.232-.006-1.298 10.472.717s.766.035 1.225.035c.118 0 .215-.003.274-.009 2.237-.215 4.047-.436 5.319-.607l-.005 4.035c0 .725-.447.837-.995.888l-1.627.309c.001.162.003.211.009.353.005.218.007.905.001 1.092l2.293-.309c1.122-.102 2.032-1.253 2.032-2.561l.01-4.053.364-.057s.484-.01.484-.566c0-.274 0-.747.003-1.04-.001-.506-.29-.551-.29-.551z" fill="#fff"/>
    </symbol>
    <symbol viewBox="0 0 48 48" id="icon-4">
        <title>Virtual Cache</title>
        <circle cx="24" cy="24" r="24" fill="#fff"/>
        <circle cx="24" cy="24" r="20" fill="#009bbb"/>
        <path d="M31.507 19.387c0 .104.005-.104 0 0zm.631 9.216c3.473-3.267 4.14-8.031 2.599-8.414-1.088-.27-1.667.708-3.201 2-.029-1.061-.029-1.932-.029-2.802 0-4.316-2.201-8.022-7.234-8.022s-7.333 3.55-7.333 8.241c.003.09-.111 1.392-.214 2.797-1.734-1.396-2.315-2.5-3.463-2.215-1.615.401-.807 5.616 3.116 8.875l.088.041c-.109 1.722-.323 3.37-.73 4.564-1.432 4.192 3.726 1.362 4.87 1.362 1.312 0 2.598 1.586 4.441 1.604 1.935.019 2.067-1.081 4.037-1.604 1.232-.327 5.606 3.122 4.037-2.407a52.134 52.134 0 0 1-.984-4.02zm-11.531-8.815c0-1.108.542-2.006 1.211-2.006s1.211.898 1.211 2.006c0 1.107-.542 2.006-1.211 2.006s-1.211-.898-1.211-2.006zm3.633 5.558c-.988 0-2.091-.84-2.091-1.504 0-.665 1.103.201 2.091.201s2.019-.908 2.019-.243-1.031 1.546-2.019 1.546zm2.422-3.552c-.669 0-1.211-.898-1.211-2.006 0-1.108.542-2.006 1.211-2.006s1.211.898 1.211 2.006c.001 1.108-.542 2.006-1.211 2.006z" fill="#fff"/>
    </symbol>
    <symbol viewBox="0 0 48 48" id="icon-5">
        <title>Letterbox Hybrid</title>
        <circle cx="24" cy="24" r="24" fill="#fff"/>
        <circle cx="24" cy="24" r="20" fill="#12508c"/>
        <path d="M12.48 16.32v.8l8.94 6 1.17.8L24.18 25l1.58-1.06 1.17-.8 8.94-6v-.8zm0 2.4v10.4L20.17 24l-7.69-5.26zm11.7 8l-2.84-1.94-8.86 5.94h23.4L27 24.78l-2.84 1.94zm11.7 2.4v-10.4L28.19 24l7.69 5.14z" fill="#fff"/>
    </symbol>
    <symbol viewBox="0 0 48 48" id="icon-8">
        <title>Mystery Cache</title>
        <circle cx="23.997" cy="24" r="24" fill="#fff"/>
        <circle cx="23.997" cy="24" r="20" fill="#12508c"/>
        <path d="M23.128 11.52c-6.949 0-8.254 4.578-8.251 6.659 0 2.497 1.737 3.329 3.909 3.329 2.268 0 3.04-1.628 3.04-2.497s-.434-2.497-2.606-2.497c0-.869 1.424-1.665 3.909-1.665 2.606 0 3.909 1.665 3.909 3.329 0 1.665-.469 2.456-2.606 4.162-2.606 2.081-3.474 3.329-3.474 4.994-.002.832 0 1.23 0 1.665 0 .416.869.832 1.737.832.869 0 1.737-.416 1.737-.832 0-1.739-.013-2.515 3.909-4.994 3.909-2.497 4.777-3.746 4.777-5.827-.001-2.496-1.304-6.658-9.99-6.658zm-.448 19.961c-1.441 0-2.608 1.119-2.608 2.499s1.168 2.5 2.608 2.5c1.44 0 2.608-1.119 2.608-2.5s-1.168-2.499-2.608-2.499z" fill="#fff"/>
    </symbol>
</svg>
